<?xml version="1.0" encoding="utf-8"?>
<!-- Generator: Adobe Illustrator 25.2.1, SVG Export Plug-In . SVG Version: 6.00 Build 0)  -->
<svg version="1.1" id="Layer_1" xmlns="http://www.w3.org/2000/svg" xmlns:xlink="http://www.w3.org/1999/xlink" x="0px" y="0px"
	 width="400px" height="400px" viewBox="0 0 400 400" enable-background="new 0 0 400 400" xml:space="preserve">
<path fill="none" stroke="#92CCB6" stroke-width="20" stroke-miterlimit="10" d="M317.3,364.8H82.7c-26.1,0-47.5-21.4-47.5-47.5
	V82.7c0-26.1,21.4-47.5,47.5-47.5h234.6c26.1,0,47.5,21.4,47.5,47.5v234.6C364.8,343.4,343.4,364.8,317.3,364.8z"/>
<path fill="#92CCB6" d="M227.3,119.3c-11.7,0-21.3,9.5-21.3,21.3c0,11.7,9.5,21.3,21.3,21.3c11.7,0,21.3-9.5,21.3-21.3
	S239.1,119.3,227.3,119.3z"/>
<path fill="#92CCB6" d="M121.3,300.6c0,0-3.1-6.5,19.3-13.3c22.5-6.8,39.5-7.9,45.9-2.3c6.4,5.6-5.4,10.5-8.2,13.6
	c-2.8,3.1,9,5.5,20.2,3.1c11.2-2.3,14.3-5.7,14.3-5.7s-2.3,4.1-7.3,7.6c-5,3.5-6.2,3.4-6.2,3.4s3.8,7.2,14.6,7.1
	c0,0-31.5,4.8-42.3-0.6c-10.8-5.4-13.1-15.5-4.1-21.1s-26.4-2.8-37,2.3C119.9,299.9,121.3,300.6,121.3,300.6z"/>
<path fill="#92CCB6" d="M237.7,272.8c3.2,0.3,10.9,5.3,12.6,10.6c1.7,5.2-1.5,16.9-11.4,21.7c0,0-2.5,0.2-4.2-1c0,0,2.4-3.4,3.1-6.9
	c0,0-6.7-0.3-10,0.3c0,0-1-9.3-1.4-10.9c0,0-5.5,1.9-6.6,3.1v-6.2C219.8,283.5,227.3,271.8,237.7,272.8z"/>
<path fill="#92CCB6" d="M218.4,286.1c0,0-2,6.7-3.5,10.8c-1.5,4.1-6.6,8.7-10,10.2c0,0,4.5,5.2,14.8,4.3c10.3-0.9,17.3-5.3,17.3-5.3
	s-2.6-0.1-4-1.5c0,0,2.5-3.8,3.1-6.3c0,0-6.8-0.3-9.2,0.8c0,0-1-8.2-1.4-11c0,0-5.5,2.4-6.7,3.6
	C218.8,291.7,218.4,287.1,218.4,286.1z"/>
<path fill="#92CCB6" d="M267.5,214.5c-2.6-3-5.3-6.2-8.1-9.4c-7.6-8.7-13.9-15.6-18.8-20.6c-9.4-9.6-12.7-11.3-16.2-11.3
	c-5,0-10.4,3.8-18,12.7c-1,1.1-1.9,2.2-2.8,3.3c-3.9-5.1-9.7-12.3-15.4-19.4c-22.1-26.8-27.2-29-31.6-29c-3.9,0-7.4,2.2-17.8,14.3
	c-5.4,6.4-12.5,15.3-20.9,26.5c-5.5,7.3-10.9,14.6-15.4,20.9v-92.9c0.1-4.1,3.4-7.5,7.6-7.5h154.8c4.2,0,7.6,3.4,7.6,7.6V208
	c4.5-5.9,9.1-11.8,13.7-17.2v-81.2c0-11.8-9.5-21.3-21.3-21.3H110c-11.7,0-21.3,9.5-21.3,21.3v114.1v19.3v2.7
	c0,8.9,8.4,19.2,19.2,19.2h126.2C237.9,258.6,251.4,236.7,267.5,214.5z"/>
<g>
	<path fill="#92CCB6" d="M269.9,245.6c-4.8-4.4-8.7-6.7-11.3-7.9c-12,17.8-20.4,31.9-20.4,31.9c8.6,3.1,14.3,11.5,14.1,11.5
		c-0.1,0,10.2-10,25-27.3C275.6,251.4,273.2,248.6,269.9,245.6z"/>
	<path fill="#92CCB6" d="M271.1,243.3c3.4,3.1,6,6.1,7.9,8.6c1.4-1.6,2.8-3.4,4.3-5.1c-1.7-2.5-4.1-5.5-7.8-8.6
		c-5.4-4.6-9.6-6.3-12.2-7c-1.1,1.5-2.1,3.1-3.1,4.6C263,237.1,267.1,239.6,271.1,243.3z"/>
	<path fill="#92CCB6" d="M335.1,156.3c-4.9-4.9-9.1,0-37.3,30.3c-11.3,12.1-23,27.8-33.1,42.2c3.1,1.1,7.3,3.2,12.6,7.2
		c3.7,2.8,6.1,6,7.7,8.6c7.1-8.7,14.8-18.7,22.6-29.8C336.2,174.3,340,161.2,335.1,156.3z"/>
</g>
</svg>
