<?xml version="1.0" encoding="utf-8"?>
<!-- Generator: Adobe Illustrator 25.2.1, SVG Export Plug-In . SVG Version: 6.00 Build 0)  -->
<svg version="1.1" id="Layer_1" xmlns="http://www.w3.org/2000/svg" xmlns:xlink="http://www.w3.org/1999/xlink" x="0px" y="0px"
	 width="1254px" height="1254px" viewBox="0 0 1254 1254" enable-background="new 0 0 1254 1254" xml:space="preserve">
<g display="none">
	<path display="inline" fill="#FFFFFF" d="M1110,375c-0.7-6-3.3-11.7-7.6-16.1L823,73.8c-5.1-5.2-12.1-8.1-19.4-8.1H303.1
		c-69.8,0-126.6,56.8-126.6,126.6v89.4h-5.6c-15,0-27.1,12.1-27.1,27.1v299.3c0,15,12.1,27.1,27.1,27.1h5.6v426.6
		c0,69.8,56.8,126.6,126.6,126.6h680.6c69.8,0,126.6-56.8,126.6-126.6V390.5v-12.6C1110.2,376.9,1110.1,375.9,1110,375z
		 M230.7,335.8h481.4V581H230.7H198V335.8H230.7z M1056,1061.8c0,39.9-32.5,72.4-72.4,72.4H303.1c-39.9,0-72.4-32.5-72.4-72.4V635.2
		h508.5c15,0,27.1-12.1,27.1-27.1V308.7c0-15-12.1-27.1-27.1-27.1H230.7v-89.4c0-39.9,32.5-72.4,72.4-72.4h482.6v181.6
		c0,24.1,0,51.3,13.4,74.6c15.9,27.6,46.2,41.5,90.1,41.5H1056V1061.8z"/>
	<path display="inline" fill="#FFFFFF" d="M522.3,803.8H333.8c-15,0-27.1-12.1-27.1-27.1s12.1-27.1,27.1-27.1h188.5
		c15,0,27.1,12.1,27.1,27.1C549.4,791.6,537.3,803.8,522.3,803.8z"/>
	<path display="inline" fill="#FFFFFF" d="M522.3,890H333.8c-15,0-27.1-12.1-27.1-27.1s12.1-27.1,27.1-27.1h188.5
		c15,0,27.1,12.1,27.1,27.1C549.4,877.8,537.3,890,522.3,890z"/>
	<path display="inline" fill="#FFFFFF" d="M522.3,976.1H333.8c-15,0-27.1-12.1-27.1-27.1s12.1-27.1,27.1-27.1h188.5
		c15,0,27.1,12.1,27.1,27.1S537.3,976.1,522.3,976.1z"/>
	<path display="inline" fill="#FFFFFF" d="M853.9,746.1c-23.1,0-42,18.8-42,42c0,23.1,18.8,42,42,42c23.1,0,42-18.8,42-42
		C895.8,764.9,877,746.1,853.9,746.1z"/>
	<path display="inline" fill="#FFFFFF" d="M927.7,685.1h-305c-23.1,0-42,18.8-42,42v224.8v38v5.3c0,17.5,16.5,37.8,37.8,37.8h312.7
		c11.6,0,21.7-8.6,25.5-12.3c8.3-8.1,13-17.8,13-26.7v-4v-7.3V727.1C969.7,703.9,950.9,685.1,927.7,685.1z M622.7,712.2h305
		c8.2,0,14.9,6.7,14.9,14.9v218c-7.7-9.1-16.5-19.4-25.5-29.7c-14.9-17.1-27.4-30.8-37.1-40.6c-18.6-18.9-25.1-22.3-31.9-22.3
		c-9.9,0-20.5,7.5-35.4,25.1c-1.9,2.2-3.7,4.4-5.4,6.6c-7.8-10.1-19-24.3-30.5-38.3c-43.5-52.9-53.6-57.1-62.3-57.1
		c-7.6,0-14.7,4.2-35.1,28.2c-10.7,12.6-24.6,30.1-41.2,52.1c-10.8,14.3-21.5,28.7-30.5,41.1V727.1
		C607.9,718.9,614.5,712.2,622.7,712.2z"/>
	<g display="inline">
		<path fill="#FFFFFF" d="M227.7,366.1h81.9c17.8,0,31.2,4.8,40.1,14.5S363,404.1,363,422c0,18.4-4.8,32.8-14.5,43.1
			c-9.7,10.4-24.4,15.5-44.3,15.5h-27v67.6h-49.5L227.7,366.1L227.7,366.1z M277.2,443.8h12.1c9.5,0,16.2-1.9,20-5.7
			c3.8-3.8,5.8-8.6,5.8-14.5c0-5.7-1.7-10.6-5-14.5c-3.3-4-9.6-6-18.8-6h-14v40.7H277.2z"/>
		<path fill="#FFFFFF" d="M389.4,366.1h73.2c14.4,0,26.1,2.2,34.9,6.7c8.9,4.5,16.2,10.9,22,19.3c5.8,8.4,10,18.1,12.6,29.2
			s3.9,22.9,3.9,35.3c0,19.5-1.9,34.6-5.8,45.3c-3.9,10.7-9.3,19.7-16.1,27c-6.9,7.2-14.3,12.1-22.2,14.5c-10.8,3.3-20.6,5-29.4,5
			h-73.2L389.4,366.1L389.4,366.1z M438.6,407.4v99.5h12.1c10.3,0,17.6-1.3,22-3.9c4.3-2.6,7.8-7.2,10.2-13.7
			c2.5-6.5,3.7-17,3.7-31.6c0-19.3-2.8-32.5-8.3-39.6s-14.6-10.7-27.4-10.7L438.6,407.4L438.6,407.4z"/>
		<path fill="#FFFFFF" d="M562.1,366.1h121.8v39.1h-72.3V437h61.7v36.8h-61.7v74.4h-49.5V366.1z"/>
	</g>
</g>
<g>
	<path fill="#92CCB6" d="M511.9,768.4l153-88.4c6.8-3.9,6.8-13.6,0-17.5l-153-88.4c-6.8-3.9-15.2,0.9-15.2,8.7v176.6
		C496.7,767.5,505.1,772.3,511.9,768.4z"/>
	<path fill="#92CCB6" d="M215,922.4c0,12.6,10.3,22.8,22.8,22.8h213.6c1.2,0,2.4-0.1,3.6-0.3c6.4,7.4,15.7,12,26.2,12
		c19.1,0,34.6-15.5,34.6-34.6c0-19.1-15.5-34.6-34.6-34.6c-10.5,0-19.9,4.7-26.2,12c-1.1-0.2-2.4-0.3-3.6-0.3H237.9
		C225.3,899.6,215,909.8,215,922.4z"/>
	<path fill="#92CCB6" d="M137.3,267.8c0.1-0.1,0.2-0.2,0.3-0.3c0.4-0.4,0.8-0.8,1.3-1.2c0.2-0.2,0.4-0.3,0.5-0.5
		c0.4-0.3,0.7-0.6,1.1-1c0.2-0.2,0.4-0.3,0.6-0.5c0.4-0.3,0.7-0.6,1.1-0.8c0.2-0.2,0.5-0.3,0.7-0.5c0.4-0.3,0.7-0.5,1.1-0.7
		c0.3-0.2,0.5-0.3,0.8-0.5c0.4-0.2,0.7-0.5,1.1-0.7c0.3-0.2,0.5-0.3,0.8-0.5c0.4-0.2,0.7-0.4,1.1-0.6c0.3-0.2,0.6-0.3,0.9-0.4
		c0.4-0.2,0.7-0.4,1.1-0.5c0.3-0.1,0.6-0.3,0.9-0.4c0.4-0.2,0.8-0.3,1.1-0.5c0.3-0.1,0.6-0.2,0.9-0.4c0.4-0.1,0.8-0.3,1.2-0.4
		c0.3-0.1,0.6-0.2,0.9-0.3c0.4-0.1,0.8-0.2,1.2-0.4c0.3-0.1,0.6-0.2,0.9-0.3c0.4-0.1,0.8-0.2,1.2-0.3c0.3-0.1,0.6-0.2,1-0.2
		c0.4-0.1,0.9-0.2,1.3-0.2c0.3-0.1,0.6-0.1,0.9-0.2c0.5-0.1,0.9-0.1,1.4-0.2c0.3,0,0.6-0.1,0.9-0.1c0.5-0.1,1-0.1,1.5-0.1
		c0.3,0,0.5,0,0.8-0.1c0.8,0,1.5-0.1,2.4-0.1c0,0,0,0,0.1,0l0,0c0,0,0.1,0,0.2,0h0.1c0.1,0,0.1,0,0.2,0c0,0,0.1,0,0.2,0
		c0.1,0,0.2,0,0.3,0c0.1,0,0.1,0,0.2,0c0.2,0,0.4,0,0.6,0h0.1c0.2,0,0.4,0,0.6,0c0.1,0,0.2,0,0.2,0c0.2,0,0.4,0,0.6,0
		c0.1,0,0.2,0,0.3,0c0.2,0,0.4,0,0.6,0c0.1,0,0.1,0,0.2,0h0.1c0.4,0,0.8,0,1.2,0h0.1c0.4,0,0.8,0,1.2,0c0.1,0,0.3,0,0.4,0
		c0.4,0,0.8,0,1.2,0.1c0.1,0,0.2,0,0.3,0c0.5,0,1,0.1,1.5,0.1c0.1,0,0.2,0,0.4,0c0.4,0,0.9,0.1,1.3,0.1c0.1,0,0.3,0,0.4,0
		c0.6,0.1,1.2,0.1,1.8,0.2h0.1c0.6,0.1,1.1,0.2,1.7,0.3c0.2,0,0.3,0.1,0.5,0.1c0.5,0.1,1,0.2,1.6,0.3c0.1,0,0.3,0,0.4,0.1
		c0.6,0.1,1.3,0.3,2.1,0.4c0.1,0,0.3,0.1,0.4,0.1c0.5,0.1,1.1,0.2,1.6,0.4c0.2,0,0.4,0.1,0.6,0.1c0.7,0.2,1.4,0.4,2.2,0.6
		c0,0,0,0,0.1,0c0.7,0.2,1.4,0.4,2.1,0.6c0.2,0.1,0.4,0.1,0.6,0.2c0.6,0.2,1.1,0.4,1.7,0.6c0.2,0.1,0.3,0.1,0.5,0.2
		c0.7,0.3,1.4,0.5,2.2,0.8c0.2,0.1,0.3,0.1,0.5,0.2c0.6,0.2,1.2,0.5,1.7,0.8c0.2,0.1,0.4,0.2,0.6,0.3c0.7,0.3,1.5,0.7,2.3,1.1
		c0.3,0.2,0.7,0.4,1,0.6c0.1,0.1,0.3,0.2,0.4,0.2c0.3,0.2,0.5,0.3,0.8,0.5c0.2,0.1,0.3,0.2,0.5,0.3c0.3,0.2,0.5,0.4,0.8,0.6
		c0.2,0.1,0.4,0.3,0.6,0.4c0.3,0.2,0.6,0.4,0.9,0.6c0.2,0.2,0.4,0.3,0.7,0.5c0.3,0.2,0.6,0.5,0.9,0.7c0.2,0.2,0.5,0.4,0.7,0.6
		c0.3,0.3,0.7,0.5,1,0.8c0.3,0.2,0.5,0.4,0.8,0.6c0.4,0.3,0.7,0.6,1.1,0.9c0.3,0.2,0.5,0.4,0.8,0.7c0.4,0.3,0.8,0.7,1.2,1
		c0.3,0.2,0.5,0.4,0.8,0.7c0.4,0.4,0.9,0.7,1.3,1.1c0.3,0.2,0.5,0.4,0.8,0.7c0.6,0.5,1.1,1,1.7,1.5c0.2,0.1,0.3,0.3,0.5,0.4
		c0.7,0.6,1.5,1.3,2.4,2.1c0.3,0.2,0.5,0.5,0.8,0.7c0.5,0.5,1.1,0.9,1.6,1.4c0.3,0.3,0.7,0.6,1,0.9c0.5,0.4,1,0.9,1.5,1.3
		c0.4,0.3,0.7,0.7,1.1,1c0.5,0.4,0.9,0.9,1.4,1.3c0.4,0.4,0.8,0.7,1.2,1.1c0.5,0.4,1,0.9,1.4,1.3c0.4,0.4,0.8,0.8,1.2,1.1
		c0.5,0.4,1,0.9,1.5,1.3c0.4,0.4,0.9,0.8,1.3,1.2c0.5,0.5,1,0.9,1.5,1.4c0.4,0.4,0.9,0.8,1.3,1.2c0.5,0.5,1,0.9,1.5,1.4
		c0.5,0.4,0.9,0.9,1.4,1.3c0.5,0.5,1,0.9,1.5,1.4c0.5,0.4,0.9,0.9,1.4,1.3c0.5,0.5,1,1,1.5,1.5c0.5,0.4,0.9,0.9,1.4,1.3
		c0.5,0.5,1,0.9,1.5,1.4c1,1,2.2,2.1,3.2,3.1c0.4,0.4,0.8,0.8,1.2,1.2c0.6,0.6,1.2,1.1,1.8,1.7c0.4,0.4,0.8,0.8,1.3,1.2
		c0.6,0.6,1.2,1.1,1.8,1.7c0.4,0.4,0.8,0.8,1.2,1.2c0.6,0.6,1.2,1.1,1.8,1.7c0.4,0.4,0.9,0.8,1.3,1.2c0.6,0.6,1.2,1.1,1.8,1.7
		c0.4,0.4,0.9,0.8,1.3,1.3c0.6,0.6,1.2,1.2,1.8,1.8c0.4,0.4,0.8,0.8,1.2,1.2c0.6,0.6,1.2,1.2,1.9,1.8c0.4,0.4,0.8,0.8,1.2,1.1
		c0.6,0.6,1.3,1.3,1.9,1.9c0.3,0.3,0.7,0.7,1,1c0.7,0.7,1.4,1.3,2.1,2.1l0.1,0.1l693.7-95.3c13-1.7,22.3-14,20.5-27l-10-72.7
		c-1.8-13-14-22.3-27-20.5l-807,110.6c-13,1.7-22.3,14-20.5,27l2.2,16l0,0C136.2,268.9,136.7,268.3,137.3,267.8z M963.7,135.8
		c1.8-0.2,3.6,1.1,3.9,3l10,72.7c0.2,1.8-1.1,3.6-3,3.9l-28.9,4l-58.9-72.9L963.7,135.8z M780.6,161l58.8,72.9l-108.5,14.9
		l-60.9-72.6L780.6,161z M560.6,191.2l61.5,72.5l-112.1,15.4l-61.7-72.5L560.6,191.2z M334.4,222.3l63.3,72.3l-107,14.7l-67.6-71.6
		L334.4,222.3z"/>
	<ellipse fill="#92CCB6" cx="176.4" cy="311.3" rx="24.2" ry="24.2"/>
	<ellipse fill="#92CCB6" cx="176.5" cy="401.7" rx="24.2" ry="24.2"/>
	<path fill="#92CCB6" d="M236.3,968c-25.2,0-45.7-20.4-45.7-45.7s20.4-45.7,45.7-45.7h565.4V698.5c-10.7-7.3-17.2-19.4-17.2-32.4
		v-17.2c0-21.7,17.7-39.3,39.3-39.3h147.5v-61.9c0-32.5-27.3-59-60.9-59H225.6c-33.6,0-60.9,26.5-60.9,59v382.6
		c0,32.5,27.3,59,60.9,59h576.2V968L236.3,968L236.3,968z M563.1,493.2c97.8,0,177.1,79.3,177.1,177.1s-79.3,177.1-177.1,177.1
		S386,768.1,386,670.3S465.3,493.2,563.1,493.2z"/>
	<path fill="#92CCB6" d="M225.6,1000.6c-39.9,0-72.4-31.6-72.4-70.4V547.7c0-38.8,32.4-70.4,72.4-70.4h684.9
		c39.9,0,72.4,31.6,72.4,70.4v61.9h16.4v-49.8v-28.3v-94.2v-17.5v-55.8c0-13.2-10.8-24-24-24H293l0,0c-3.1-3.1-6.3-6.1-9.3-9.1
		c-0.7-0.7-1.4-1.3-2.1-2.1c-0.3-0.3-0.7-0.7-1-1c-0.6-0.6-1.3-1.3-1.9-1.9c-0.4-0.4-0.8-0.8-1.2-1.1c-0.6-0.6-1.2-1.2-1.9-1.8
		c-0.4-0.4-0.8-0.8-1.2-1.2c-0.6-0.6-1.2-1.2-1.8-1.8c-0.4-0.4-0.9-0.8-1.3-1.3c-0.6-0.6-1.2-1.1-1.8-1.7c-0.4-0.4-0.9-0.8-1.3-1.2
		c-0.6-0.6-1.2-1.1-1.8-1.7c-0.4-0.4-0.8-0.8-1.2-1.2c-0.6-0.6-1.2-1.1-1.8-1.7c-0.4-0.4-0.8-0.8-1.3-1.2c-0.6-0.6-1.2-1.1-1.8-1.7
		c-0.4-0.4-0.8-0.8-1.2-1.2c-1-1-2.2-2.1-3.2-3.1c-0.5-0.5-1-0.9-1.5-1.4c-0.5-0.4-0.9-0.9-1.4-1.3c-0.5-0.5-1-1-1.5-1.5
		c-0.5-0.4-0.9-0.9-1.4-1.3c-0.5-0.5-1-0.9-1.5-1.4c-0.5-0.4-0.9-0.9-1.4-1.3c-0.5-0.5-1-0.9-1.5-1.4c-0.4-0.4-0.9-0.8-1.3-1.2
		c-0.5-0.5-1-0.9-1.5-1.4c-0.4-0.4-0.9-0.8-1.3-1.2c-0.5-0.4-1-0.9-1.5-1.3c-0.4-0.4-0.8-0.8-1.2-1.1c-0.5-0.4-1-0.9-1.4-1.3
		s-0.8-0.7-1.2-1.1c-0.5-0.4-1-0.9-1.4-1.3c-0.4-0.3-0.8-0.7-1.1-1c-0.5-0.4-1-0.9-1.5-1.3c-0.3-0.3-0.7-0.6-1-0.9
		c-0.5-0.5-1.1-1-1.6-1.4c-0.3-0.2-0.5-0.5-0.8-0.7c-0.8-0.7-1.5-1.4-2.4-2.1c-0.2-0.1-0.3-0.3-0.5-0.4c-0.6-0.5-1.2-1-1.7-1.5
		c-0.3-0.2-0.5-0.4-0.8-0.7c-0.4-0.4-0.9-0.8-1.3-1.1c-0.3-0.2-0.5-0.5-0.8-0.7c-0.4-0.3-0.8-0.7-1.2-1c-0.3-0.2-0.5-0.4-0.8-0.7
		c-0.4-0.3-0.7-0.6-1.1-0.9c-0.3-0.2-0.5-0.4-0.8-0.6c-0.3-0.3-0.7-0.5-1-0.8c-0.2-0.2-0.5-0.4-0.7-0.6c-0.3-0.2-0.6-0.5-0.9-0.7
		c-0.2-0.2-0.4-0.3-0.7-0.5c-0.3-0.2-0.6-0.4-0.9-0.6c-0.2-0.1-0.4-0.3-0.6-0.4c-0.3-0.2-0.5-0.4-0.8-0.6c-0.2-0.1-0.3-0.2-0.5-0.3
		c-0.3-0.2-0.5-0.3-0.8-0.5c-0.1-0.1-0.3-0.2-0.4-0.2c-0.4-0.2-0.7-0.4-1-0.6c-0.7-0.4-1.5-0.7-2.3-1.1c-0.2-0.1-0.4-0.2-0.6-0.3
		c-0.6-0.3-1.2-0.5-1.7-0.8c-0.2-0.1-0.3-0.1-0.5-0.2c-0.7-0.3-1.4-0.6-2.2-0.8c-0.2-0.1-0.3-0.1-0.5-0.2c-0.6-0.2-1.2-0.4-1.7-0.6
		c-0.2-0.1-0.4-0.1-0.6-0.2c-0.7-0.2-1.4-0.4-2.1-0.6c0,0,0,0-0.1,0c-0.7-0.2-1.4-0.4-2.2-0.6c-0.2,0-0.4-0.1-0.6-0.1
		c-0.5-0.1-1.1-0.3-1.6-0.4c-0.1,0-0.3-0.1-0.4-0.1c-0.7-0.1-1.3-0.3-2.1-0.4c-0.1,0-0.3,0-0.4-0.1c-0.5-0.1-1-0.2-1.6-0.3
		c-0.2,0-0.3-0.1-0.5-0.1c-0.6-0.1-1.2-0.2-1.7-0.3h-0.1c-0.6-0.1-1.2-0.1-1.8-0.2c-0.2,0-0.3,0-0.4,0c-0.4,0-0.9-0.1-1.3-0.1
		c-0.1,0-0.3,0-0.4,0c-0.5,0-1-0.1-1.5-0.1c-0.1,0-0.2,0-0.3,0c-0.4,0-0.8,0-1.2-0.1c-0.1,0-0.3,0-0.4,0c-0.4,0-0.8,0-1.2,0h-0.1
		c-0.4,0-0.8,0-1.2,0c-0.1,0-0.2,0-0.3,0c-0.2,0-0.4,0-0.6,0c-0.1,0-0.2,0-0.3,0c-0.2,0-0.4,0-0.6,0c-0.1,0-0.2,0-0.2,0
		c-0.2,0-0.4,0-0.6,0h-0.1c-0.2,0-0.4,0-0.6,0c-0.1,0-0.1,0-0.2,0c-0.1,0-0.2,0-0.3,0c-0.1,0-0.1,0-0.2,0c-0.1,0-0.2,0-0.2,0h-0.1
		c-0.1,0-0.1,0-0.2,0l0,0h-0.1c-0.8,0-1.6,0-2.4,0.1c-0.3,0-0.5,0-0.8,0.1c-0.5,0-1,0.1-1.5,0.1c-0.3,0-0.6,0.1-0.9,0.1
		c-0.5,0.1-0.9,0.1-1.4,0.2c-0.3,0.1-0.6,0.1-0.9,0.2c-0.4,0.1-0.9,0.2-1.3,0.2c-0.3,0.1-0.6,0.1-1,0.2c-0.4,0.1-0.8,0.2-1.2,0.3
		c-0.3,0.1-0.6,0.2-0.9,0.3c-0.4,0.1-0.8,0.2-1.2,0.4c-0.3,0.1-0.6,0.2-0.9,0.3c-0.4,0.1-0.8,0.3-1.2,0.4c-0.3,0.1-0.6,0.2-0.9,0.4
		c-0.4,0.2-0.8,0.3-1.1,0.5c-0.3,0.1-0.6,0.3-0.9,0.4c-0.4,0.2-0.7,0.4-1.1,0.5c-0.3,0.1-0.6,0.3-0.9,0.4c-0.4,0.2-0.7,0.4-1.1,0.6
		c-0.3,0.2-0.5,0.3-0.8,0.5c-0.4,0.2-0.7,0.4-1.1,0.7c-0.3,0.2-0.5,0.3-0.8,0.5c-0.4,0.2-0.7,0.5-1.1,0.7c-0.2,0.2-0.5,0.3-0.7,0.5
		c-0.4,0.3-0.7,0.6-1.1,0.8c-0.2,0.2-0.4,0.3-0.6,0.5c-0.4,0.3-0.7,0.6-1.1,1c-0.2,0.2-0.4,0.3-0.5,0.5c-0.4,0.4-0.9,0.8-1.3,1.2
		c-0.1,0.1-0.2,0.2-0.3,0.3c-0.5,0.5-1,1.1-1.5,1.6c-7.3,8-11.7,18.6-11.7,30.2v116.6c0,12.1,4.9,23.2,12.7,31.3v84v48.6v366.7
		c0,38.6,31.6,70.2,70.2,70.2h594.9v-15.9L225.6,1000.6L225.6,1000.6z M340.5,447.6C340.5,447.5,340.5,447.5,340.5,447.6
		C340.5,447.5,340.5,447.5,340.5,447.6z M341.9,446l0.1-0.1C342,445.9,342,445.9,341.9,446z M343.4,444.2c0.1-0.1,0.1-0.1,0.2-0.2
		C343.5,444.1,343.5,444.1,343.4,444.2z M344.7,442.5c0.1-0.1,0.1-0.2,0.2-0.3C344.9,442.3,344.8,442.4,344.7,442.5z M346,440.6
		c0.1-0.1,0.2-0.2,0.2-0.4C346.1,440.4,346,440.5,346,440.6z M347.2,438.8c0.1-0.1,0.2-0.3,0.2-0.4
		C347.4,438.5,347.3,438.6,347.2,438.8z M348.2,436.8c0.1-0.2,0.2-0.3,0.3-0.5C348.4,436.4,348.3,436.6,348.2,436.8z M349.2,434.8
		c0.1-0.2,0.2-0.4,0.3-0.6C349.4,434.5,349.3,434.6,349.2,434.8z M350,432.7c0.1-0.2,0.2-0.4,0.2-0.6
		C350.3,432.3,350.2,432.5,350,432.7z M350.9,430.7c0.1-0.2,0.2-0.5,0.2-0.7C351.1,430.2,351,430.5,350.9,430.7z M351.5,428.5
		c0.1-0.2,0.1-0.5,0.2-0.7C351.7,428,351.6,428.3,351.5,428.5z M352.1,426.4c0.1-0.3,0.1-0.5,0.2-0.8
		C352.2,425.7,352.2,426.1,352.1,426.4z M352.5,424.1c0-0.3,0.1-0.5,0.1-0.8C352.6,423.5,352.6,423.8,352.5,424.1z M352.9,421.7
		c0-0.3,0.1-0.5,0.1-0.8C353,421.2,352.9,421.4,352.9,421.7z M353.1,419.3c0-0.2,0-0.5,0.1-0.7C353.2,418.9,353.1,419.1,353.1,419.3
		z M944.9,360.6h30.4c1.8,0,3.4,1.6,3.4,3.4v73.3c0,1.8-1.6,3.4-3.4,3.4h-89L944.9,360.6z M723.4,360.6h113.3L777,440.7H665.1
		L723.4,360.6z M505.3,360.6h110l-57.6,80.2H446.3L505.3,360.6z M313.7,360.6h79l-39.4,54.7c0.2-3.2,0.1-13-6.5-20.7
		C344.3,391.6,331.1,377.9,313.7,360.6C313.6,360.5,313.6,360.6,313.7,360.6z M308.8,355.6c-0.1-0.1-0.1-0.1-0.2-0.2
		C308.7,355.5,308.8,355.6,308.8,355.6z M303.8,350.6c-0.1-0.1-0.2-0.2-0.3-0.3C303.6,350.4,303.7,350.5,303.8,350.6z M298.4,345.4
		c-0.1-0.1-0.2-0.2-0.3-0.3C298.2,345.2,298.3,345.3,298.4,345.4z M146.8,299.6c0-12.2,10-22.2,22.2-22.2l1,0.1l1.3-0.2
		c0.3,0,1.1-0.1,2.4-0.1c3.8,0,13.8,0.5,23.2,5.3c1.5,0.9,14,9.1,69.7,63.5c32.1,31.4,59.9,59.7,63,63.3c0.6,0.7,1,2.7,0.9,4.1
		l-0.1,0.6v2.1c0,12.2-10,22.2-22.2,22.2H169c-12.2,0-22.2-10-22.2-22.2L146.8,299.6L146.8,299.6z"/>
	<g>
		<path fill="#92CCB6" d="M1129.8,666.1v-17.2c0-16-13-29-29-29h-277c-16,0-29,13-29,29v17.2c0,11.8,7.1,22,17.2,26.5v373.2
			c-10.2,4.5-17.2,14.8-17.2,26.5v17.2c0,16,13,29,29,29h276.9c16,0,29-13,29-29v-17.2c0-12.8-8.4-23.8-20.1-27.6V693.7
			C1121.3,689.9,1129.8,678.9,1129.8,666.1z M1061.5,747.2c0,27.3-11.9,52.5-35.5,75.2c-18.2,17.4-36.7,26.7-36.9,26.8
			c-3.5,1.7-5.7,5.3-5.7,9.2v31.5c0,3.9,2.2,7.4,5.5,9.1c0.3,0.2,30.3,16,57.5,56.4c7.5,11.1,11.3,23.6,13.8,44.6
			c2.6,21.7,2,45.1,0.8,63H860.9c-1.4-18.2-2.4-42.6-0.5-67.6c1.3-18.9,13.4-41.5,34.9-65.3c16.8-18.7,33.7-31.4,33.8-31.5
			c2.6-2,4.1-4.9,4.1-8.2v-31.6c0-4.3-2.6-8-6.5-9.5c-0.5-0.2-8.2-3.5-18.4-11.9c-9.6-8-23.7-22.6-35.5-46.2
			c-15.3-30.5-13.2-71.7-10.3-96.1h197.4C1060.8,705.5,1061.5,721.8,1061.5,747.2z M840,695.2h12.2c-3.1,25.8-4.8,68.2,11.4,100.7
			c24.8,49.8,59.3,63.1,59.3,63.1v31.6c0,0-69,52.1-72.8,104.3c-1.8,25.5-0.9,50,0.4,68.4H840V695.2z M1081.8,1063.2h-10.6
			c1.1-18.3,1.6-42-0.9-64.2c-2.4-20.5-6.3-35.5-15.4-49.2c-29.1-43.5-61.3-59.9-61.3-59.9v-31.6c0,0,78.2-38,78.2-111.1
			c0-24.5-0.6-40.9-1.4-52h11.5L1081.8,1063.2L1081.8,1063.2z"/>
		<path fill="#92CCB6" d="M1041.4,1020.9c-15.8-7.4-79-60.8-79-69.6c0-10.3,0-34.4,0-53.1c0-24.4,12-42.9,21.6-49.5
			c9.5-6.7,29.7-18,40.5-28.8l0,0c16-13.2,26-31.4,26-51.4c0-6.3-179.4-5.7-179.4,0c0,15.1,5.6,29.1,15.2,40.7l0,0
			c9,12.5,24.7,27.7,36.8,35.3c12.1,7.5,35.2,21.8,35.2,54.1c0,20.5,0,38.3,0,48.4c-0.2,1.1-0.3,2.6-0.3,4.4
			c0,11.5-58.5,59.5-76.4,68.4c-17.9,8.8-20.9,37.8-9.2,37.8c11.7,0,164.5,0,178.1,0C1059.3,1057.4,1057.2,1028.3,1041.4,1020.9z"/>
	</g>
</g>
</svg>
