<?xml version="1.0" encoding="utf-8"?>
<!-- Generator: Adobe Illustrator 25.2.1, SVG Export Plug-In . SVG Version: 6.00 Build 0)  -->
<svg version="1.1" id="Layer_1" xmlns="http://www.w3.org/2000/svg" xmlns:xlink="http://www.w3.org/1999/xlink" x="0px" y="0px"
	 width="1254px" height="1254px" viewBox="0 0 1254 1254" enable-background="new 0 0 1254 1254" xml:space="preserve">
<g display="none">
	<path display="inline" fill="#FFFFFF" d="M1110,375c-0.7-6-3.3-11.7-7.6-16.1L823,73.8c-5.1-5.2-12.1-8.1-19.4-8.1H303.1
		c-69.8,0-126.6,56.8-126.6,126.6v89.4h-5.6c-15,0-27.1,12.1-27.1,27.1v299.3c0,15,12.1,27.1,27.1,27.1h5.6v426.6
		c0,69.8,56.8,126.6,126.6,126.6h680.6c69.8,0,126.6-56.8,126.6-126.6V390.5v-12.6C1110.2,376.9,1110.1,375.9,1110,375z
		 M230.7,335.8h481.4V581H230.7H198V335.8H230.7z M1056,1061.8c0,39.9-32.5,72.4-72.4,72.4H303.1c-39.9,0-72.4-32.5-72.4-72.4V635.2
		h508.5c15,0,27.1-12.1,27.1-27.1V308.7c0-15-12.1-27.1-27.1-27.1H230.7v-89.4c0-39.9,32.5-72.4,72.4-72.4h482.6v181.6
		c0,24.1,0,51.3,13.4,74.6c15.9,27.6,46.2,41.5,90.1,41.5H1056V1061.8z"/>
	<path display="inline" fill="#FFFFFF" d="M522.3,803.8H333.8c-15,0-27.1-12.1-27.1-27.1s12.1-27.1,27.1-27.1h188.5
		c15,0,27.1,12.1,27.1,27.1C549.4,791.6,537.3,803.8,522.3,803.8z"/>
	<path display="inline" fill="#FFFFFF" d="M522.3,890H333.8c-15,0-27.1-12.1-27.1-27.1s12.1-27.1,27.1-27.1h188.5
		c15,0,27.1,12.1,27.1,27.1C549.4,877.8,537.3,890,522.3,890z"/>
	<path display="inline" fill="#FFFFFF" d="M522.3,976.1H333.8c-15,0-27.1-12.1-27.1-27.1s12.1-27.1,27.1-27.1h188.5
		c15,0,27.1,12.1,27.1,27.1S537.3,976.1,522.3,976.1z"/>
	<path display="inline" fill="#FFFFFF" d="M853.9,746.1c-23.1,0-42,18.8-42,42c0,23.1,18.8,42,42,42c23.1,0,42-18.8,42-42
		C895.8,764.9,877,746.1,853.9,746.1z"/>
	<path display="inline" fill="#FFFFFF" d="M927.7,685.1h-305c-23.1,0-42,18.8-42,42v224.8v38v5.3c0,17.5,16.5,37.8,37.8,37.8h312.7
		c11.6,0,21.7-8.6,25.5-12.3c8.3-8.1,13-17.8,13-26.7v-4v-7.3V727.1C969.7,703.9,950.9,685.1,927.7,685.1z M622.7,712.2h305
		c8.2,0,14.9,6.7,14.9,14.9v218c-7.7-9.1-16.5-19.4-25.5-29.7c-14.9-17.1-27.4-30.8-37.1-40.6c-18.6-18.9-25.1-22.3-31.9-22.3
		c-9.9,0-20.5,7.5-35.4,25.1c-1.9,2.2-3.7,4.4-5.4,6.6c-7.8-10.1-19-24.3-30.5-38.3c-43.5-52.9-53.6-57.1-62.3-57.1
		c-7.6,0-14.7,4.2-35.1,28.2c-10.7,12.6-24.6,30.1-41.2,52.1c-10.8,14.3-21.5,28.7-30.5,41.1V727.1
		C607.9,718.9,614.5,712.2,622.7,712.2z"/>
	<g display="inline">
		<path fill="#FFFFFF" d="M227.7,366.1h81.9c17.8,0,31.2,4.8,40.1,14.5S363,404.1,363,422c0,18.4-4.8,32.8-14.5,43.1
			c-9.7,10.4-24.4,15.5-44.3,15.5h-27v67.6h-49.5L227.7,366.1L227.7,366.1z M277.2,443.8h12.1c9.5,0,16.2-1.9,20-5.7
			c3.8-3.8,5.8-8.6,5.8-14.5c0-5.7-1.7-10.6-5-14.5c-3.3-4-9.6-6-18.8-6h-14v40.7H277.2z"/>
		<path fill="#FFFFFF" d="M389.4,366.1h73.2c14.4,0,26.1,2.2,34.9,6.7c8.9,4.5,16.2,10.9,22,19.3c5.8,8.4,10,18.1,12.6,29.2
			s3.9,22.9,3.9,35.3c0,19.5-1.9,34.6-5.8,45.3c-3.9,10.7-9.3,19.7-16.1,27c-6.9,7.2-14.3,12.1-22.2,14.5c-10.8,3.3-20.6,5-29.4,5
			h-73.2L389.4,366.1L389.4,366.1z M438.6,407.4v99.5h12.1c10.3,0,17.6-1.3,22-3.9c4.3-2.6,7.8-7.2,10.2-13.7
			c2.5-6.5,3.7-17,3.7-31.6c0-19.3-2.8-32.5-8.3-39.6s-14.6-10.7-27.4-10.7L438.6,407.4L438.6,407.4z"/>
		<path fill="#FFFFFF" d="M562.1,366.1h121.8v39.1h-72.3V437h61.7v36.8h-61.7v74.4h-49.5V366.1z"/>
	</g>
</g>
<g>
	<g>
		<path fill="#92CCB6" d="M1033.4,275.9c-0.6-5-2.7-9.8-6.4-13.6l-235.1-240c-4.3-4.4-10.2-6.8-16.3-6.8H354.3
			c-58.8,0-106.6,47.8-106.6,106.6v75.2h-4.7c-12.7,0-22.8,10.2-22.8,22.8V472c0,12.7,10.2,22.8,22.8,22.8h4.7v359
			c0,58.8,47.8,106.6,106.6,106.6h572.8c58.8,0,106.6-47.8,106.6-106.6V289v-10.7C1033.6,277.5,1033.5,276.7,1033.4,275.9z
			 M293.4,243h405.1v206.3H293.4h-27.6V243H293.4z M988,854c0,33.6-27.4,61-61,61H354.3c-33.6,0-61-27.4-61-61V494.9h428
			c12.7,0,22.8-10.2,22.8-22.8v-252c0-12.7-10.2-22.8-22.8-22.8h-428v-75.2c0-33.6,27.4-61,61-61h406.2V214c0,20.3,0,43.2,11.2,62.7
			c13.4,23.3,38.9,34.9,75.8,34.9h140.3L988,854L988,854z"/>
		<path fill="#92CCB6" d="M538.7,636.8H380.1c-12.7,0-22.8-10.2-22.8-22.8c0-12.7,10.2-22.8,22.8-22.8h158.6
			c12.7,0,22.8,10.2,22.8,22.8C561.6,626.6,551.4,636.8,538.7,636.8z"/>
		<path fill="#92CCB6" d="M538.7,709.4H380.1c-12.7,0-22.8-10.2-22.8-22.8c0-12.5,10.2-22.8,22.8-22.8h158.6
			c12.7,0,22.8,10.2,22.8,22.8C561.6,699,551.4,709.4,538.7,709.4z"/>
		<path fill="#92CCB6" d="M538.7,781.8H380.1c-12.7,0-22.8-10.2-22.8-22.8c0-12.7,10.2-22.8,22.8-22.8h158.6
			c12.7,0,22.8,10.2,22.8,22.8C561.6,771.6,551.4,781.8,538.7,781.8z"/>
		<path fill="#92CCB6" d="M817.8,588.3c-19.3,0-35.3,15.8-35.3,35.3c0,19.3,15.8,35.3,35.3,35.3c19.3,0,35.3-15.8,35.3-35.3
			S837.3,588.3,817.8,588.3z"/>
		<path fill="#92CCB6" d="M880,536.9H623.2c-19.3,0-35.3,15.8-35.3,35.3v189.3v32v4.5c0,14.7,13.9,31.9,31.9,31.9h263.1
			c9.8,0,18.3-7.2,21.4-10.4c6.9-6.8,10.9-15,10.9-22.5v-3.3v-6.2V572.3C915.3,552.7,899.5,536.9,880,536.9z M623.2,559.7H880
			c6.9,0,12.5,5.6,12.5,12.5v183.4c-6.4-7.6-13.9-16.3-21.4-25c-12.5-14.4-23.1-25.9-31.3-34.2c-15.6-15.9-21.1-18.8-26.9-18.8
			c-8.4,0-17.3,6.4-29.8,21.1c-1.7,1.9-3.1,3.7-4.6,5.5c-6.5-8.5-16-20.4-25.6-32.2c-36.6-44.5-45.1-48.1-52.5-48.1
			c-6.4,0-12.3,3.6-29.5,23.7c-9,10.7-20.7,25.3-34.7,43.9c-9.1,12-18.1,24.2-25.6,34.6V572.2C610.8,565.3,616.4,559.7,623.2,559.7z
			"/>
		<g>
			<path fill="#92CCB6" d="M290.8,268.4h68.9c15,0,26.2,4.1,33.8,12.2c7.4,8.2,11.2,19.8,11.2,34.8c0,15.5-4.1,27.6-12.2,36.2
				c-8.2,8.8-20.5,13.1-37.2,13.1h-22.8v57h-41.7V268.4L290.8,268.4z M332.5,333.9h10.2c7.9,0,13.7-1.7,16.8-4.8
				c3.1-3.1,4.9-7.2,4.9-12.2c0-4.8-1.5-8.9-4.2-12.2s-8.1-5-15.8-5h-11.7L332.5,333.9L332.5,333.9z"/>
			<path fill="#92CCB6" d="M427,268.4h61.7c12.1,0,22,1.9,29.4,5.6c7.4,3.7,13.7,9.2,18.5,16.2c4.9,7,8.4,15.2,10.7,24.6
				c2.1,9.4,3.2,19.2,3.2,29.7c0,16.4-1.7,29.1-4.9,38.2c-3.2,9-7.8,16.5-13.6,22.8c-5.9,6.1-12,10.2-18.7,12.2
				c-9.1,2.7-17.4,4.2-24.7,4.2h-61.7L427,268.4L427,268.4z M468.4,303.2v83.7h10.2c8.7,0,14.8-1.1,18.5-3.2
				c3.6-2.1,6.5-6.1,8.6-11.5c2.1-5.5,3.1-14.3,3.1-26.7c0-16.2-2.3-27.4-6.9-33.4s-12.2-9-23.1-9L468.4,303.2L468.4,303.2z"/>
			<path fill="#92CCB6" d="M572.2,268.4h102.5v32.8h-60.9V328h52v31h-52v62.7h-41.6V268.4L572.2,268.4z"/>
		</g>
	</g>
	<g>
		<path fill="#92CCB6" d="M478,1075.1c10.7,0,19-8.6,19-19v-40.3h260.3v40.3c0,10.7,8.6,19,19,19s19-8.6,19-19v-59.2
			c0-10.7-8.6-19-19-19H477.7c-10.7,0-19,8.6-19,19v59.2C459.1,1066.5,467.7,1075.1,478,1075.1z"/>
		<path fill="#92CCB6" d="M702.8,1125.4c-4.7,0-9.8,1.8-13.6,5.6l-43.2,43.2v-109c0-10.7-8.6-19-19-19s-19,8.6-19,19v106.9
			l-40.6-40.6c-7.4-7.4-19.5-7.4-27,0c-7.4,7.4-7.4,19.5,0,27l74.3,74.3c7.4,7.4,19.5,7.4,27,0l74.3-74.9c7.4-7.4,7.4-19.5,0-27
			C712.6,1127.2,707.6,1125.4,702.8,1125.4z"/>
	</g>
</g>
</svg>
