<?xml version="1.0" encoding="utf-8"?>
<!-- Generator: Adobe Illustrator 25.2.1, SVG Export Plug-In . SVG Version: 6.00 Build 0)  -->
<svg version="1.1" id="Layer_1" xmlns="http://www.w3.org/2000/svg" xmlns:xlink="http://www.w3.org/1999/xlink" x="0px" y="0px"
	 width="1254px" height="1254px" viewBox="0 0 1254 1254" enable-background="new 0 0 1254 1254" xml:space="preserve">
<g display="none">
	<path display="inline" fill="#FFFFFF" d="M1110,375c-0.7-6-3.3-11.7-7.6-16.1L823,73.8c-5.1-5.2-12.1-8.1-19.4-8.1H303.1
		c-69.8,0-126.6,56.8-126.6,126.6v89.4h-5.6c-15,0-27.1,12.1-27.1,27.1v299.3c0,15,12.1,27.1,27.1,27.1h5.6v426.6
		c0,69.8,56.8,126.6,126.6,126.6h680.6c69.8,0,126.6-56.8,126.6-126.6V390.5v-12.6C1110.2,376.9,1110.1,375.9,1110,375z
		 M230.7,335.8h481.4V581H230.7H198V335.8H230.7z M1056,1061.8c0,39.9-32.5,72.4-72.4,72.4H303.1c-39.9,0-72.4-32.5-72.4-72.4V635.2
		h508.5c15,0,27.1-12.1,27.1-27.1V308.7c0-15-12.1-27.1-27.1-27.1H230.7v-89.4c0-39.9,32.5-72.4,72.4-72.4h482.6v181.6
		c0,24.1,0,51.3,13.4,74.6c15.9,27.6,46.2,41.5,90.1,41.5H1056V1061.8z"/>
	<path display="inline" fill="#FFFFFF" d="M522.3,803.8H333.8c-15,0-27.1-12.1-27.1-27.1s12.1-27.1,27.1-27.1h188.5
		c15,0,27.1,12.1,27.1,27.1C549.4,791.6,537.3,803.8,522.3,803.8z"/>
	<path display="inline" fill="#FFFFFF" d="M522.3,890H333.8c-15,0-27.1-12.1-27.1-27.1s12.1-27.1,27.1-27.1h188.5
		c15,0,27.1,12.1,27.1,27.1C549.4,877.8,537.3,890,522.3,890z"/>
	<path display="inline" fill="#FFFFFF" d="M522.3,976.1H333.8c-15,0-27.1-12.1-27.1-27.1s12.1-27.1,27.1-27.1h188.5
		c15,0,27.1,12.1,27.1,27.1S537.3,976.1,522.3,976.1z"/>
	<path display="inline" fill="#FFFFFF" d="M853.9,746.1c-23.1,0-42,18.8-42,42c0,23.1,18.8,42,42,42c23.1,0,42-18.8,42-42
		C895.8,764.9,877,746.1,853.9,746.1z"/>
	<path display="inline" fill="#FFFFFF" d="M927.7,685.1h-305c-23.1,0-42,18.8-42,42v224.8v38v5.3c0,17.5,16.5,37.8,37.8,37.8h312.7
		c11.6,0,21.7-8.6,25.5-12.3c8.3-8.1,13-17.8,13-26.7v-4v-7.3V727.1C969.7,703.9,950.9,685.1,927.7,685.1z M622.7,712.2h305
		c8.2,0,14.9,6.7,14.9,14.9v218c-7.7-9.1-16.5-19.4-25.5-29.7c-14.9-17.1-27.4-30.8-37.1-40.6c-18.6-18.9-25.1-22.3-31.9-22.3
		c-9.9,0-20.5,7.5-35.4,25.1c-1.9,2.2-3.7,4.4-5.4,6.6c-7.8-10.1-19-24.3-30.5-38.3c-43.5-52.9-53.6-57.1-62.3-57.1
		c-7.6,0-14.7,4.2-35.1,28.2c-10.7,12.6-24.6,30.1-41.2,52.1c-10.8,14.3-21.5,28.7-30.5,41.1V727.1
		C607.9,718.9,614.5,712.2,622.7,712.2z"/>
	<g display="inline">
		<path fill="#FFFFFF" d="M227.7,366.1h81.9c17.8,0,31.2,4.8,40.1,14.5S363,404.1,363,422c0,18.4-4.8,32.8-14.5,43.1
			c-9.7,10.4-24.4,15.5-44.3,15.5h-27v67.6h-49.5L227.7,366.1L227.7,366.1z M277.2,443.8h12.1c9.5,0,16.2-1.9,20-5.7
			c3.8-3.8,5.8-8.6,5.8-14.5c0-5.7-1.7-10.6-5-14.5c-3.3-4-9.6-6-18.8-6h-14v40.7H277.2z"/>
		<path fill="#FFFFFF" d="M389.4,366.1h73.2c14.4,0,26.1,2.2,34.9,6.7c8.9,4.5,16.2,10.9,22,19.3c5.8,8.4,10,18.1,12.6,29.2
			s3.9,22.9,3.9,35.3c0,19.5-1.9,34.6-5.8,45.3c-3.9,10.7-9.3,19.7-16.1,27c-6.9,7.2-14.3,12.1-22.2,14.5c-10.8,3.3-20.6,5-29.4,5
			h-73.2L389.4,366.1L389.4,366.1z M438.6,407.4v99.5h12.1c10.3,0,17.6-1.3,22-3.9c4.3-2.6,7.8-7.2,10.2-13.7
			c2.5-6.5,3.7-17,3.7-31.6c0-19.3-2.8-32.5-8.3-39.6s-14.6-10.7-27.4-10.7L438.6,407.4L438.6,407.4z"/>
		<path fill="#FFFFFF" d="M562.1,366.1h121.8v39.1h-72.3V437h61.7v36.8h-61.7v74.4h-49.5V366.1z"/>
	</g>
</g>
<path fill="#92CCB6" d="M722.4,578.6l-154.7-89.3c-6.8-3.9-15.4,0.9-15.4,8.8v178.5c0,7.9,8.5,12.8,15.4,8.8l154.7-89.3
	C729.3,592.3,729.3,582.5,722.4,578.6z"/>
<path fill="#92CCB6" d="M550.1,806.1c-10.6,0-20.1,4.8-26.4,12.1c-1.1-0.2-2.4-0.3-3.6-0.3H304.2c-12.8,0-23,10.4-23,23
	c0,12.8,10.4,23,23,23H520c1.2,0,2.4-0.1,3.6-0.3c6.4,7.5,15.9,12.1,26.4,12.1c19.3,0,35-15.7,35-35S569.4,806.1,550.1,806.1z"/>
<path fill="#92CCB6" d="M230.3,166.2c0,0,19.6-2.2,38.9,7.8c10,5.1,44.6,37.7,77.1,69.4l701.1-96.4c13.2-1.8,22.5-14.1,20.7-27.3
	L1058,46.3c-1.8-13.2-14.1-22.5-27.3-20.7l-815.6,112c-13.2,1.8-22.5,14.1-20.7,27.3l2.2,16.2C204.9,172,216.9,166.2,230.3,166.2z
	 M1033.4,46.2c1.9-0.2,3.6,1.1,3.9,3l10.1,73.4c0.2,1.9-1.1,3.6-3,3.9l-29.2,4l-59.5-73.6L1033.4,46.2z M848.4,71.6l59.4,73.6
	l-109.6,15l-61.5-73.3L848.4,71.6z M626.1,102.2l62.1,73.2L575,191l-62.3-73.2L626.1,102.2z M397.5,133.6l64,73l-108.2,14.8L285,149
	L397.5,133.6z"/>
<ellipse fill="#92CCB6" cx="238.7" cy="223.4" rx="24.5" ry="24.5"/>
<ellipse fill="#92CCB6" cx="238.7" cy="314.8" rx="24.5" ry="24.5"/>
<g>
	<path fill="#92CCB6" d="M979.6,402.7H287.3c-33.9,0-61.5,26.8-61.5,59.6V849c0,32.9,27.6,59.6,61.5,59.6h692.1
		c33.9,0,61.5-26.8,61.5-59.6V462.3C1041.1,429.4,1013.5,402.7,979.6,402.7z M628.6,407.3c98.8,0,179,80.2,179,179
		s-80.2,179-179,179s-179-80.2-179-179S529.6,407.3,628.6,407.3z M959.4,887.2H298.3c-25.5,0-46.2-20.6-46.2-46.2
		s20.6-46.2,46.2-46.2h661.2c25.5,0,46.2,20.6,46.2,46.2S984.9,887.2,959.4,887.2z"/>
	<path fill="#92CCB6" d="M1045,252.5H355.6l0,0c-35-34.3-75.5-72.9-86.4-78.5c-13.5-6.9-27.2-8-34.1-8c-3,0-4.8,0.2-4.8,0.2
		c-25,0-45.5,20.4-45.5,45.5v117.8c0,12.2,5,23.4,12.9,31.6V446v49.2v370.1c0,39,31.9,70.9,70.9,70.9h729.8
		c39,0,70.9-31.9,70.9-70.9V474.6V446v-95.2v-17.6v-56.4C1069.3,263.4,1058.4,252.5,1045,252.5z M1014.3,273.2h30.7
		c1.9,0,3.4,1.7,3.4,3.4v74.2c0,1.9-1.7,3.4-3.4,3.4h-89.9L1014.3,273.2z M790.6,273.2h114.5l-60.4,81h-113L790.6,273.2z
		 M570.2,273.2h111.2l-58.2,81H510.5L570.2,273.2z M456.3,273.2l-39.8,55.3c0.2-3.2,0.1-13.2-6.5-21c-2.6-3-16-16.7-33.6-34.3l0,0
		H456.3L456.3,273.2z M416.3,331.9c0,0.2,0,0.5-0.1,0.7C416.3,332.4,416.3,332.1,416.3,331.9z M416.2,334.3c0,0.3-0.1,0.5-0.1,0.8
		C416.1,334.8,416.1,334.6,416.2,334.3z M415.9,336.6c0,0.3-0.1,0.5-0.1,0.8C415.8,337.2,415.8,336.9,415.9,336.6z M415.5,339
		c-0.1,0.3-0.1,0.5-0.2,0.8C415.3,339.5,415.4,339.2,415.5,339z M414.9,341.1c-0.1,0.3-0.1,0.5-0.2,0.7
		C414.8,341.7,414.9,341.5,414.9,341.1z M414.3,343.4c-0.1,0.2-0.2,0.5-0.2,0.7C414.1,343.8,414.2,343.6,414.3,343.4z M413.5,345.6
		c-0.1,0.2-0.2,0.4-0.2,0.6C413.3,346,413.4,345.8,413.5,345.6z M412.6,347.7c-0.1,0.2-0.2,0.4-0.3,0.6
		C412.4,348.1,412.5,347.9,412.6,347.7z M411.7,349.9c-0.1,0.2-0.2,0.3-0.3,0.5C411.5,350.2,411.6,350,411.7,349.9z M410.5,351.8
		c-0.1,0.1-0.2,0.3-0.2,0.4C410.3,352.1,410.4,352,410.5,351.8z M409.4,353.8c-0.1,0.1-0.2,0.2-0.2,0.4
		C409.2,354.1,409.3,354,409.4,353.8z M408,355.8c-0.1,0.1-0.1,0.2-0.2,0.3C407.9,356,407.9,355.9,408,355.8z M406.7,357.6
		c-0.1,0.1-0.1,0.1-0.2,0.2C406.6,357.7,406.6,357.7,406.7,357.6z M405.1,359.4l-0.1,0.1C405.1,359.5,405.1,359.5,405.1,359.4z
		 M403.6,361.2L403.6,361.2L403.6,361.2z M361.1,258c-0.1-0.1-0.2-0.2-0.3-0.3C360.8,257.7,361,257.9,361.1,258z M371.5,268.3
		c-0.1-0.1-0.1-0.1-0.2-0.2C371.4,268.2,371.4,268.3,371.5,268.3z M366.3,263.2c-0.1-0.1-0.2-0.2-0.3-0.3
		C366.2,263,366.3,263.1,366.3,263.2z M207.8,211.7c0-12.3,10.1-22.4,22.4-22.4l1,0.1l1.3-0.2c0.3,0,1.1-0.1,2.4-0.1
		c3.8,0,13.9,0.5,23.4,5.4c1.6,0.9,14.1,9.2,70.4,64.2c32.5,31.7,60.6,60.4,63.7,64c0.6,0.7,1,2.7,0.9,4.1l-0.1,0.6v2.1
		c0,12.3-10.1,22.4-22.4,22.4H230.3c-12.3,0-22.4-10.1-22.4-22.4V211.7H207.8z M1052.7,849c0,39.2-32.8,71.2-73.1,71.2H287.3
		c-40.3,0-73.1-31.9-73.1-71.2V462.3c0-39.2,32.8-71.2,73.1-71.2h692.1c40.3,0,73.1,31.9,73.1,71.2V849H1052.7z"/>
</g>
<g>
	<path fill="#92CCB6" d="M478,1065.4c10.7,0,19-8.6,19-19v-40.3h260.3v40.3c0,10.7,8.6,19,19,19s19-8.6,19-19v-59.2
		c0-10.7-8.6-19-19-19H477.7c-10.7,0-19,8.6-19,19v59.2C459.1,1056.8,467.7,1065.4,478,1065.4z"/>
	<path fill="#92CCB6" d="M702.8,1115.7c-4.7,0-9.8,1.8-13.6,5.6l-43.2,43.2v-109c0-10.7-8.6-19-19-19s-19,8.6-19,19v106.9
		l-40.6-40.6c-7.4-7.4-19.5-7.4-27,0c-7.4,7.4-7.4,19.5,0,27l74.3,74.3c7.4,7.4,19.5,7.4,27,0l74.3-74.9c7.4-7.4,7.4-19.5,0-27
		C712.6,1117.5,707.6,1115.7,702.8,1115.7z"/>
</g>
</svg>
